<svg id="mermaid-1601542591592" width="100%" xmlns="http://www.w3.org/2000/svg" xmlns:xlink="http://www.w3.org/1999/xlink" height="816.734375" style="max-width: 873.234375px;" viewBox="-20 -20 873.234375 816.734375"><style>#mermaid-1601542591592{font-family:"trebuchet ms",verdana,arial;font-size:16px;fill:#333;}#mermaid-1601542591592 .error-icon{fill:#552222;}#mermaid-1601542591592 .error-text{fill:#552222;stroke:#552222;}#mermaid-1601542591592 .edge-thickness-normal{stroke-width:2px;}#mermaid-1601542591592 .edge-thickness-thick{stroke-width:3.5px;}#mermaid-1601542591592 .edge-pattern-solid{stroke-dasharray:0;}#mermaid-1601542591592 .edge-pattern-dashed{stroke-dasharray:3;}#mermaid-1601542591592 .edge-pattern-dotted{stroke-dasharray:2;}#mermaid-1601542591592 .marker{fill:#333333;}#mermaid-1601542591592 .marker.cross{stroke:#333333;}#mermaid-1601542591592 svg{font-family:"trebuchet ms",verdana,arial;font-size:16px;}#mermaid-1601542591592 g.classGroup text{fill:#9370DB;fill:#131300;stroke:none;font-family:"trebuchet ms",verdana,arial;font-size:10px;}#mermaid-1601542591592 g.classGroup text .title{font-weight:bolder;}#mermaid-1601542591592 .classTitle{font-weight:bolder;}#mermaid-1601542591592 .node rect,#mermaid-1601542591592 .node circle,#mermaid-1601542591592 .node ellipse,#mermaid-1601542591592 .node polygon,#mermaid-1601542591592 .node path{fill:#ECECFF;stroke:#9370DB;stroke-width:1px;}#mermaid-1601542591592 .divider{stroke:#9370DB;stroke:1;}#mermaid-1601542591592 g.clickable{cursor:pointer;}#mermaid-1601542591592 g.classGroup rect{fill:#ECECFF;stroke:#9370DB;}#mermaid-1601542591592 g.classGroup line{stroke:#9370DB;stroke-width:1;}#mermaid-1601542591592 .classLabel .box{stroke:none;stroke-width:0;fill:#ECECFF;opacity:0.5;}#mermaid-1601542591592 .classLabel .label{fill:#9370DB;font-size:10px;}#mermaid-1601542591592 .relation{stroke:#333333;stroke-width:1;fill:none;}#mermaid-1601542591592 .dashed-line{stroke-dasharray:3;}#mermaid-1601542591592 #compositionStart,#mermaid-1601542591592 .composition{fill:#333333 !important;stroke:#333333 !important;stroke-width:1;}#mermaid-1601542591592 #compositionEnd,#mermaid-1601542591592 .composition{fill:#333333 !important;stroke:#333333 !important;stroke-width:1;}#mermaid-1601542591592 #dependencyStart,#mermaid-1601542591592 .dependency{fill:#333333 !important;stroke:#333333 !important;stroke-width:1;}#mermaid-1601542591592 #dependencyStart,#mermaid-1601542591592 .dependency{fill:#333333 !important;stroke:#333333 !important;stroke-width:1;}#mermaid-1601542591592 #extensionStart,#mermaid-1601542591592 .extension{fill:#333333 !important;stroke:#333333 !important;stroke-width:1;}#mermaid-1601542591592 #extensionEnd,#mermaid-1601542591592 .extension{fill:#333333 !important;stroke:#333333 !important;stroke-width:1;}#mermaid-1601542591592 #aggregationStart,#mermaid-1601542591592 .aggregation{fill:#ECECFF !important;stroke:#333333 !important;stroke-width:1;}#mermaid-1601542591592 #aggregationEnd,#mermaid-1601542591592 .aggregation{fill:#ECECFF !important;stroke:#333333 !important;stroke-width:1;}#mermaid-1601542591592 .edgeTerminals{font-size:11px;}#mermaid-1601542591592:root{--mermaid-font-family:"trebuchet ms",verdana,arial;}#mermaid-1601542591592 class{fill:apa;}</style><g></g><defs><marker id="extensionStart" class="extension" refX="0" refY="7" markerWidth="190" markerHeight="240" orient="auto"><path d="M 1,7 L18,13 V 1 Z"></path></marker></defs><defs><marker id="extensionEnd" refX="19" refY="7" markerWidth="20" markerHeight="28" orient="auto"><path d="M 1,1 V 13 L18,7 Z"></path></marker></defs><defs><marker id="compositionStart" class="extension" refX="0" refY="7" markerWidth="190" markerHeight="240" orient="auto"><path d="M 18,7 L9,13 L1,7 L9,1 Z"></path></marker></defs><defs><marker id="compositionEnd" refX="19" refY="7" markerWidth="20" markerHeight="28" orient="auto"><path d="M 18,7 L9,13 L1,7 L9,1 Z"></path></marker></defs><defs><marker id="aggregationStart" class="extension" refX="0" refY="7" markerWidth="190" markerHeight="240" orient="auto"><path d="M 18,7 L9,13 L1,7 L9,1 Z"></path></marker></defs><defs><marker id="aggregationEnd" refX="19" refY="7" markerWidth="20" markerHeight="28" orient="auto"><path d="M 18,7 L9,13 L1,7 L9,1 Z"></path></marker></defs><defs><marker id="dependencyStart" class="extension" refX="0" refY="7" markerWidth="190" markerHeight="240" orient="auto"><path d="M 5,7 L9,13 L1,7 L9,1 Z"></path></marker></defs><defs><marker id="dependencyEnd" refX="19" refY="7" markerWidth="20" markerHeight="28" orient="auto"><path d="M 18,7 L9,13 L14,7 L9,1 Z"></path></marker></defs><g id="classid-Game-5761" class="classGroup" transform="translate(324.2421875,0 )"><rect x="0" y="0" width="197.9375" height="128.21875" class=" "></rect><text y="15" x="0"><tspan x="73.265625">«Interface»</tspan><tspan class="title" dy="10" x="85.7734375">Game</tspan></text><line x1="0" y1="31.609375" y2="31.609375" x2="197.9375"></line><text x="5" y="41.609375" fill="white" class="classText"></text><line x1="0" y1="36.609375" y2="36.609375" x2="197.9375"></line><text x="5" y="51.609375" fill="white" class="classText"><tspan x="5">+updateScore()</tspan><tspan x="5" dy="10">+updateScoreLimit()</tspan><tspan x="5" dy="10">+startGame()</tspan><tspan x="5" dy="10">+endGame()</tspan><tspan x="5" dy="10">+increaseScore(tile : Tile, block : Block)</tspan><tspan x="5" dy="10">+decreaseScore(tile : Tile, block : Block)</tspan><tspan x="5" dy="10">+getMaps() : List&lt;Map&gt;</tspan><tspan x="5" dy="10">+postNewMap()</tspan></text></g><g id="classid-GameImpl-5762" class="classGroup" transform="translate(380.5546875,178.21875 )"><rect x="0" y="0" width="85.3125" height="52.421875" class=" "></rect><text y="15" x="0"><tspan class="title" x="19.3828125">GameImpl</tspan></text><line x1="0" y1="21.609375" y2="21.609375" x2="85.3125"></line><text x="5" y="31.609375" fill="white" class="classText"><tspan x="5">-score : int</tspan><tspan x="5" dy="10">-scorelimit : int</tspan></text><line x1="0" y1="48.21875" y2="48.21875" x2="85.3125"></line><text x="5" y="63.21875" fill="white" class="classText"></text></g><g id="classid-Map-5763" class="classGroup" transform="translate(0,280.640625 )"><rect x="0" y="0" width="228.234375" height="98.21875" class=" "></rect><text y="15" x="0"><tspan x="88.4140625">«Interface»</tspan><tspan class="title" dy="10" x="104.609375">Map</tspan></text><line x1="0" y1="31.609375" y2="31.609375" x2="228.234375"></line><text x="5" y="41.609375" fill="white" class="classText"></text><line x1="0" y1="36.609375" y2="36.609375" x2="228.234375"></line><text x="5" y="51.609375" fill="white" class="classText"><tspan x="5">+initializeMap()</tspan><tspan x="5" dy="10">+getNeighbours(Tile tile, int radius) : List&lt;Tile&gt;</tspan><tspan x="5" dy="10">+getTopScores() : List&lt;Integer&gt;</tspan><tspan x="5" dy="10">+postNewScore()</tspan><tspan x="5" dy="10">+getTile(x : int, y : int) : Tile</tspan></text></g><g id="classid-Player-5764" class="classGroup" transform="translate(278.234375,295.640625 )"><rect x="0" y="0" width="126.625" height="68.21875" class=" "></rect><text y="15" x="0"><tspan x="37.609375">«Interface»</tspan><tspan class="title" dy="10" x="48.4921875">Player</tspan></text><line x1="0" y1="31.609375" y2="31.609375" x2="126.625"></line><text x="5" y="41.609375" fill="white" class="classText"></text><line x1="0" y1="36.609375" y2="36.609375" x2="126.625"></line><text x="5" y="51.609375" fill="white" class="classText"><tspan x="5">+setName(name : String)</tspan><tspan x="5" dy="10">+getName() : String</tspan></text></g><g id="classid-UndoRedoCollector-5765" class="classGroup" transform="translate(454.859375,289.8359375 )"><rect x="0" y="0" width="100.03125" height="79.828125" class=" "></rect><text y="15" x="0"><tspan class="title" x="5">UndoRedoCollector</tspan></text><line x1="0" y1="21.609375" y2="21.609375" x2="100.03125"></line><text x="5" y="31.609375" fill="white" class="classText"><tspan x="5">-sizeMax : int</tspan></text><line x1="0" y1="38.21875" y2="38.21875" x2="100.03125"></line><text x="5" y="53.21875" fill="white" class="classText"><tspan x="5">+add(Undoable u)</tspan><tspan x="5" dy="10">+undo()</tspan><tspan x="5" dy="10">+redo()</tspan></text></g><g id="classid-RenamePlayer-5766" class="classGroup" transform="translate(734.9375,560.78125 )"><rect x="0" y="0" width="98.296875" height="52.421875" class=" "></rect><text y="15" x="0"><tspan class="title" x="15.6171875">RenamePlayer</tspan></text><line x1="0" y1="21.609375" y2="21.609375" x2="98.296875"></line><text x="5" y="31.609375" fill="white" class="classText"><tspan x="5">-newName : String</tspan><tspan x="5" dy="10">-oldName : String</tspan></text><line x1="0" y1="48.21875" y2="48.21875" x2="98.296875"></line><text x="5" y="63.21875" fill="white" class="classText"></text></g><g id="classid-MapImpl-5767" class="classGroup" transform="translate(64.3828125,441.7578125 )"><rect x="0" y="0" width="99.46875" height="42.421875" class=" "></rect><text y="15" x="0"><tspan class="title" x="30.1484375">MapImpl</tspan></text><line x1="0" y1="21.609375" y2="21.609375" x2="99.46875"></line><text x="5" y="31.609375" fill="white" class="classText"><tspan x="5">-mapName : String</tspan></text><line x1="0" y1="38.21875" y2="38.21875" x2="99.46875"></line><text x="5" y="53.21875" fill="white" class="classText"></text></g><g id="classid-Tile-5768" class="classGroup" transform="translate(47.2578125,547.078125 )"><rect x="0" y="0" width="133.71875" height="79.828125" class=" "></rect><text y="15" x="0"><tspan class="title" x="57.9375">Tile</tspan></text><line x1="0" y1="21.609375" y2="21.609375" x2="133.71875"></line><text x="5" y="31.609375" fill="white" class="classText"><tspan x="5">-occupied : boolean</tspan><tspan x="5" dy="10">-x : int</tspan><tspan x="5" dy="10">-y : int</tspan></text><line x1="0" y1="58.21875" y2="58.21875" x2="133.71875"></line><text x="5" y="73.21875" fill="white" class="classText"><tspan x="5">+setOccupied(b : boolean)</tspan></text></g><g id="classid-Type-5769" class="classGroup" transform="translate(54.2734375,690.609375 )"><rect x="0" y="0" width="99.6875" height="72.421875" class=" "></rect><text y="15" x="0"><tspan x="16.1328125">«enumeration»</tspan><tspan class="title" dy="10" x="38.5">Type</tspan></text><line x1="0" y1="31.609375" y2="31.609375" x2="99.6875"></line><text x="5" y="41.609375" fill="white" class="classText"><tspan x="5">TREE</tspan><tspan x="5" dy="10">WATER</tspan><tspan x="5" dy="10">GRASS</tspan></text><line x1="0" y1="68.21875" y2="68.21875" x2="99.6875"></line><text x="5" y="83.21875" fill="white" class="classText"></text></g><g id="classid-PlayerImpl-5770" class="classGroup" transform="translate(287.5546875,441.7578125 )"><rect x="0" y="0" width="107.984375" height="42.421875" class=" "></rect><text y="15" x="0"><tspan class="title" x="29.1640625">PlayerImpl</tspan></text><line x1="0" y1="21.609375" y2="21.609375" x2="107.984375"></line><text x="5" y="31.609375" fill="white" class="classText"><tspan x="5">-playerName : String</tspan></text><line x1="0" y1="38.21875" y2="38.21875" x2="107.984375"></line><text x="5" y="53.21875" fill="white" class="classText"></text></g><g id="classid-Inventaire-5771" class="classGroup" transform="translate(278.7890625,552.8828125 )"><rect x="0" y="0" width="125.515625" height="68.21875" class=" "></rect><text y="15" x="0"><tspan class="title" x="38.8046875">Inventaire</tspan></text><line x1="0" y1="21.609375" y2="21.609375" x2="125.515625"></line><text x="5" y="31.609375" fill="white" class="classText"></text><line x1="0" y1="26.609375" y2="26.609375" x2="125.515625"></line><text x="5" y="41.609375" fill="white" class="classText"><tspan x="5">+updateStock()</tspan><tspan x="5" dy="10">+remove(block : Block)</tspan><tspan x="5" dy="10">+addBlock(block : Block)</tspan></text></g><g id="classid-Block-5772" class="classGroup" transform="translate(279.6484375,676.90625 )"><rect x="0" y="0" width="103.796875" height="99.828125" class=" "></rect><text y="15" x="0"><tspan x="18.1875">«enumeration»</tspan><tspan class="title" dy="10" x="39.25">Block</tspan></text><line x1="0" y1="31.609375" y2="31.609375" x2="103.796875"></line><text x="5" y="41.609375" fill="white" class="classText"><tspan x="5">HOUSE</tspan><tspan x="5" dy="10">CIRCUS</tspan><tspan x="5" dy="10">FOUNTAIN</tspan><tspan x="5" dy="10">WIND TURBINE</tspan></text><line x1="0" y1="78.21875" y2="78.21875" x2="103.796875"></line><text x="5" y="93.21875" fill="white" class="classText"><tspan x="5">+radiusEffect() : int</tspan></text></g><g id="classid-Undoable-5773" class="classGroup" transform="translate(452.1796875,428.859375 )"><rect x="0" y="0" width="105.390625" height="68.21875" class=" "></rect><text y="15" x="0"><tspan x="26.9921875">«Interface»</tspan><tspan class="title" dy="10" x="30.6953125">Undoable</tspan></text><line x1="0" y1="31.609375" y2="31.609375" x2="105.390625"></line><text x="5" y="41.609375" fill="white" class="classText"></text><line x1="0" y1="36.609375" y2="36.609375" x2="105.390625"></line><text x="5" y="51.609375" fill="white" class="classText"><tspan x="5">+undo()</tspan><tspan x="5" dy="10">+redo()</tspan></text></g><g id="classid-Command-5774" class="classGroup" transform="translate(667.203125,433.859375 )"><rect x="0" y="0" width="107.40625" height="58.21875" class=" "></rect><text y="15" x="0"><tspan x="28">«Interface»</tspan><tspan class="title" dy="10" x="30.6953125">Command</tspan></text><line x1="0" y1="31.609375" y2="31.609375" x2="107.40625"></line><text x="5" y="41.609375" fill="white" class="classText"></text><line x1="0" y1="36.609375" y2="36.609375" x2="107.40625"></line><text x="5" y="51.609375" fill="white" class="classText"><tspan x="5">+execute()</tspan></text></g><g id="classid-PutBlock-5775" class="classGroup" transform="translate(469.828125,560.78125 )"><rect x="0" y="0" width="79.046875" height="52.421875" class=" "></rect><text y="15" x="0"><tspan class="title" x="19.0078125">PutBlock</tspan></text><line x1="0" y1="21.609375" y2="21.609375" x2="79.046875"></line><text x="5" y="31.609375" fill="white" class="classText"><tspan x="5">-block : Block</tspan><tspan x="5" dy="10">-oldScore : int</tspan></text><line x1="0" y1="48.21875" y2="48.21875" x2="79.046875"></line><text x="5" y="63.21875" fill="white" class="classText"></text></g><g id="classid-MoveBlock-5776" class="classGroup" transform="translate(598.875,560.78125 )"><rect x="0" y="0" width="86.0625" height="52.421875" class=" "></rect><text y="15" x="0"><tspan class="title" x="18.1171875">MoveBlock</tspan></text><line x1="0" y1="21.609375" y2="21.609375" x2="86.0625"></line><text x="5" y="31.609375" fill="white" class="classText"><tspan x="5">-oldScore : int</tspan><tspan x="5" dy="10">-done : boolean</tspan></text><line x1="0" y1="48.21875" y2="48.21875" x2="86.0625"></line><text x="5" y="63.21875" fill="white" class="classText"></text></g><path d="M423.2109375,128.21875L423.2109375,132.38541666666666C423.2109375,136.55208333333334,423.2109375,144.88541666666666,423.2109375,153.21875C423.2109375,161.55208333333334,423.2109375,169.88541666666666,423.2109375,174.05208333333334L423.2109375,178.21875" id="edge3534" class="relation dashed-line" marker-start="url(#extensionStart)"></path><path d="M380.5546875,211.49701433121018L336.1484375,218.8542827760085C291.7421875,226.21155122080677,202.9296875,240.92608811040338,158.5234375,252.45002322186838C114.1171875,263.9739583333333,114.1171875,272.3072916666667,114.1171875,276.4739583333333L114.1171875,280.640625" id="edge3535" class="relation" marker-start="url(#compositionStart)"></path><g class="classLabel"><rect class="box" x="221.09375" y="223.90625" width="27.84375" height="16.609375"></rect><text class="label" x="235.0040478664661" y="235.6119785107121" fill="red" text-anchor="middle">-map</text></g><g class="cardinality"><text class="type2" x="119.1171875" y="268.140625" fill="black" font-size="6">1</text></g><path d="M381.41338911136535,230.640625L374.76897009280447,234.80729166666666C368.1245510742436,238.97395833333334,354.8357130371218,247.30729166666666,348.1912940185609,258.140625C341.546875,268.9739583333333,341.546875,282.3072916666667,341.546875,288.9739583333333L341.546875,295.640625" id="edge3536" class="relation" marker-start="url(#compositionStart)"></path><g class="classLabel"><rect class="box" x="326.171875" y="242.0625" width="36.84375" height="16.609375"></rect><text class="label" x="344.536121656507" y="253.76609024123184" fill="red" text-anchor="middle">-player</text></g><g class="cardinality"><text class="type2" x="346.546875" y="283.140625" fill="black" font-size="6">1</text></g><path d="M465.00848588863465,230.640625L471.65290490719553,234.80729166666666C478.2973239257564,238.97395833333334,491.5861619628782,247.30729166666666,498.2305809814391,257.1731770833333C504.875,267.0390625,504.875,278.4375,504.875,284.13671875L504.875,289.8359375" id="edge3537" class="relation" marker-start="url(#compositionStart)"></path><g class="classLabel"><rect class="box" x="475.15625" y="240.515625" width="48.640625" height="16.609375"></rect><text class="label" x="499.4268862093939" y="252.22415260954529" fill="red" text-anchor="middle">-collector</text></g><g class="cardinality"><text class="type2" x="509.875" y="277.3359375" fill="black" font-size="6">1</text></g><path d="M465.8671875,210.08309170853636L523.1575520833334,217.6760139237803C580.4479166666666,225.26893613902425,695.0286458333334,240.4547805695121,752.3190104166666,260.39926528475604C809.609375,280.34375,809.609375,305.046875,809.609375,329.75C809.609375,354.453125,809.609375,379.15625,809.609375,401.359375C809.609375,423.5625,809.609375,443.265625,809.609375,462.96875C809.609375,482.671875,809.609375,502.375,807.0731069096763,518.6770833333334C804.5368388193525,534.9791666666666,799.4643026387051,547.8802083333334,796.9280345483812,554.3307291666666L794.3917664580575,560.78125" id="edge3538" class="relation" marker-start="url(#compositionStart)"></path><g class="classLabel"><rect class="box" x="767.21875" y="241.390625" width="46.5" height="16.609375"></rect><text class="label" x="790.4156331912844" y="253.09680127618572" fill="red" text-anchor="middle">-renamer</text></g><g class="cardinality"><text class="type2" x="803.6189894562912" y="550.977763082537" fill="black" font-size="6">1</text></g><path d="M114.1171875,378.859375L114.1171875,383.0260416666667C114.1171875,387.1927083333333,114.1171875,395.5260416666667,114.1171875,406.0091145833333C114.1171875,416.4921875,114.1171875,429.125,114.1171875,435.44140625L114.1171875,441.7578125" id="edge3539" class="relation dashed-line" marker-start="url(#extensionStart)"></path><path d="M114.1171875,484.1796875L114.1171875,490.49609375C114.1171875,496.8125,114.1171875,509.4453125,114.1171875,519.9283854166666C114.1171875,530.4114583333334,114.1171875,538.7447916666666,114.1171875,542.9114583333334L114.1171875,547.078125" id="edge3540" class="relation" marker-start="url(#compositionStart)"></path><g class="classLabel"><rect class="box" x="100.140625" y="503.921875" width="27.953125" height="16.609375"></rect><text class="label" x="114.1171875" y="515.62890625" fill="red" text-anchor="middle">-tiles</text></g><g class="cardinality"><text class="type2" x="119.1171875" y="534.578125" fill="black" font-size="6">*</text></g><path d="M107.9684331372608,626.90625L107.32655886438401,631.0729166666666C106.6846845915072,635.2395833333334,105.40093604575361,643.5729166666666,104.7590617728768,654.1901041666666C104.1171875,664.8072916666666,104.1171875,677.7083333333334,104.1171875,684.1588541666666L104.1171875,690.609375" id="edge3541" class="relation" marker-start="url(#compositionStart)"></path><g class="classLabel"><rect class="box" x="89.8125" y="646.90625" width="28.75" height="16.609375"></rect><text class="label" x="104.1171875" y="658.6103612453152" fill="red" text-anchor="middle">-type</text></g><g class="cardinality"><text class="type2" x="109.1171875" y="678.109375" fill="black" font-size="6">1</text></g><path d="M341.546875,363.859375L341.546875,370.5260416666667C341.546875,377.1927083333333,341.546875,390.5260416666667,341.546875,403.5091145833333C341.546875,416.4921875,341.546875,429.125,341.546875,435.44140625L341.546875,441.7578125" id="edge3542" class="relation dashed-line" marker-start="url(#extensionStart)"></path><path d="M341.546875,484.1796875L341.546875,490.49609375C341.546875,496.8125,341.546875,509.4453125,341.546875,520.8958333333334C341.546875,532.3463541666666,341.546875,542.6145833333334,341.546875,547.7486979166666L341.546875,552.8828125" id="edge3543" class="relation" marker-start="url(#compositionStart)"></path><g class="classLabel"><rect class="box" x="314.4375" y="506.828125" width="54.375" height="16.609375"></rect><text class="label" x="341.546875" y="518.53125" fill="red" text-anchor="middle">-inventaire</text></g><g class="cardinality"><text class="type2" x="346.546875" y="540.3828125" fill="black" font-size="6">1</text></g><path d="M341.546875,621.1015625L341.546875,626.2356770833334C341.546875,631.3697916666666,341.546875,641.6380208333334,340.99068214012584,650.9388020833334C340.4344892802517,660.2395833333334,339.32210356050336,668.5729166666666,338.7659107006292,672.7395833333334L338.20971784075505,676.90625" id="edge3544" class="relation" marker-start="url(#compositionStart)"></path><g class="classLabel"><rect class="box" x="323.234375" y="637.40625" width="36.625" height="16.609375"></rect><text class="label" x="341.546875" y="649.1147807032794" fill="red" text-anchor="middle">-blocks</text></g><g class="cardinality"><text class="type2" x="344.8196664651825" y="665.1777130416905" fill="black" font-size="6">*</text></g><path d="M177.88889729886267,626.90625L184.5460862907189,631.0729166666666C191.2032752825751,635.2395833333334,204.51765326628757,643.5729166666666,221.4775766331438,654.5269090811177C238.4375,665.4809014955687,259.04296875,679.0555529911373,269.345703125,685.8428787389216L279.6484375,692.630204486706" id="edge3545" class="relation" marker-start="url(#compositionStart)"></path><g class="classLabel"><rect class="box" x="212.78125" y="647.59375" width="32.71875" height="16.625"></rect><text class="label" x="229.06518128330018" y="659.306523138629" fill="red" text-anchor="middle">-block</text></g><g class="cardinality"><text class="type2" x="271.96069830193693" y="681.5781157238266" fill="black" font-size="6">1</text></g><path d="M466.27794167061984,369.6640625L460.76677430884985,375.36328125C455.2556069470799,381.0625,444.2332722235399,392.4609375,443.7737613953853,402.3268229166667C443.3142505672306,412.1927083333333,453.4175636344612,420.5260416666667,458.46922016807656,424.6927083333333L463.5208767016918,428.859375" id="edge3546" class="relation" marker-start="url(#compositionStart)"></path><g class="classLabel"><rect class="box" x="418.78125" y="389.171875" width="34.609375" height="16.625"></rect><text class="label" x="436.0883196891395" y="400.88381112273225" fill="red" text-anchor="middle">-undos</text></g><g class="cardinality"><text class="type2" x="457.05930375895775" y="417.0484446765357" fill="black" font-size="6">*</text></g><path d="M554.890625,356.73334861798327L569.44921875,364.5876863483193C584.0078125,372.4420240786555,613.125,388.1506995393277,613.5716145833334,402.0774500760678C614.0182291666666,416.00420061280784,585.7942708333334,428.14902622561567,571.6822916666666,434.2214390320196L557.5703125,440.2938518384235" id="edge3547" class="relation" marker-start="url(#compositionStart)"></path><g class="classLabel"><rect class="box" x="622.625" y="390.46875" width="33.015625" height="16.625"></rect><text class="label" x="639.1289028738229" y="402.1797629904501" fill="red" text-anchor="middle">-redos</text></g><g class="cardinality"><text class="type2" x="571.0287278674583" y="439.94592110255627" fill="black" font-size="6">*</text></g><path d="M460.33354810996565,497.078125L454.892540091638,501.2447916666667C449.4515320733105,505.4114583333333,438.5695160366552,513.7447916666666,441.2434790462291,524.3619791666666C443.91744205580295,534.9791666666666,460.14738411160596,547.8802083333334,468.2623551395074,554.3307291666666L476.37732616740885,560.78125" id="edge3548" class="relation dashed-line" marker-start="url(#extensionStart)"></path><g class="cardinality"><text class="type2" x="469.70339671696166" y="549.0890018974983" fill="black" font-size="6">*</text></g><path d="M675.099189631245,492.078125L667.2310955260376,497.078125C659.3630014208301,502.078125,643.626813210415,512.078125,622.5894482718742,524.2898478863221C601.5520833333334,536.5015707726444,575.2135416666666,550.9250165452887,562.0442708333334,558.1367394316109L548.875,565.3484623179331" id="edge3549" class="relation dashed-line" marker-start="url(#extensionStart)"></path><g class="cardinality"><text class="type2" x="562.2402784161083" y="563.7300270056919" fill="black" font-size="6">*</text></g><path d="M539.9333603869284,497.078125L544.2159513641069,501.2447916666667C548.4985423412855,505.4114583333333,557.0637242956428,513.7447916666666,568.9260071919753,524.3619791666666C580.7882900883078,534.9791666666666,595.9476739266157,547.8802083333334,603.5273658457696,554.3307291666666L611.1070577649235,560.78125" id="edge3550" class="relation dashed-line" marker-start="url(#extensionStart)"></path><g class="cardinality"><text class="type2" x="604.828152672404" y="548.8722050828318" fill="black" font-size="6">*</text></g><path d="M719.7308714561856,492.078125L719.5289814218213,497.078125C719.327091387457,502.078125,718.9233113187285,512.078125,711.1083472017931,523.5286458333334C703.2933830848579,534.9791666666666,688.0672349197156,547.8802083333334,680.4541608371445,554.3307291666666L672.8410867545733,560.78125" id="edge3551" class="relation dashed-line" marker-start="url(#extensionStart)"></path><g class="cardinality"><text class="type2" x="685.6102936912614" y="556.5154143013314" fill="black" font-size="6">*</text></g><path d="M737.8232367664552,492.078125L740.7289993887126,497.078125C743.6347620109701,502.078125,749.446287255485,512.078125,755.2167052965655,523.5286458333334C760.9871233376458,534.9791666666666,766.7164341752919,547.8802083333334,769.5810895941148,554.3307291666666L772.4457450129378,560.78125" id="edge3552" class="relation dashed-line" marker-start="url(#extensionStart)"></path><g class="cardinality"><text class="type2" x="771.941978393952" y="547.3277664662235" fill="black" font-size="6">*</text></g><path d="M557.5703125,493.2048135806916L565.95703125,498.01703215057637C574.34375,502.82925072046106,591.1171875,512.4536878602306,620.6783854166666,525.0670303336241C650.2395833333334,537.6803728070175,692.5885416666666,553.2826206140351,713.7630208333334,561.0837445175438L734.9375,568.8848684210526" id="edge3553" class="relation dashed-line" marker-start="url(#extensionStart)"></path><g class="cardinality"><text class="type2" x="724.936737833923" y="559.8718358516252" fill="black" font-size="6">*</text></g></svg>